<svg xmlns="http://www.w3.org/2000/svg" viewBox="0 0 128 128" width="128" height="128">
  <!-- Accordéon -->
  <g transform="rotate(45,64,64)">
    <rect x="22" y="20" width="22" height="88" rx="4" fill="#B42222" stroke="#7D1616" stroke-width="2"/>
    <rect x="74" y="20" width="22" height="88" rx="4" fill="#B42222" stroke="#7D1616" stroke-width="2"/>

    <rect x="44" y="20" width="30" height="88" fill="#202020" stroke="#444" stroke-width="1.5"/>
    <g stroke="#555" stroke-width="1">
      <line x1="46" y1="22" x2="72" y2="22"/>
      <line x1="46" y1="30" x2="72" y2="30"/>
      <line x1="46" y1="38" x2="72" y2="38"/>
      <line x1="46" y1="46" x2="72" y2="46"/>
      <line x1="46" y1="54" x2="72" y2="54"/>
      <line x1="46" y1="62" x2="72" y2="62"/>
      <line x1="46" y1="70" x2="72" y2="70"/>
      <line x1="46" y1="78" x2="72" y2="78"/>
      <line x1="46" y1="86" x2="72" y2="86"/>
      <line x1="46" y1="94" x2="72" y2="94"/>
      <line x1="46" y1="102" x2="72" y2="102"/>
    </g>

    <g fill="#EFEFEF">
      <circle cx="30" cy="34" r="2.3"/><circle cx="37" cy="34" r="2.3"/>
      <circle cx="30" cy="44" r="2.3"/><circle cx="37" cy="44" r="2.3"/>
      <circle cx="30" cy="54" r="2.3"/><circle cx="37" cy="54" r="2.3"/>
      <circle cx="30" cy="64" r="2.3"/><circle cx="37" cy="64" r="2.3"/>
      <circle cx="30" cy="74" r="2.3"/><circle cx="37" cy="74" r="2.3"/>
      <circle cx="30" cy="84" r="2.3"/><circle cx="37" cy="84" r="2.3"/>
    </g>

    <g>
      <rect x="77" y="28" width="6" height="8" fill="#f6f6f6" stroke="#bbb" stroke-width="0.4"/>
      <rect x="84" y="28" width="6" height="8" fill="#f6f6f6" stroke="#bbb" stroke-width="0.4"/>
      <rect x="77" y="38" width="6" height="8" fill="#f6f6f6" stroke="#bbb" stroke-width="0.4"/>
      <rect x="84" y="38" width="6" height="8" fill="#f6f6f6" stroke="#bbb" stroke-width="0.4"/>
      <rect x="77" y="48" width="6" height="8" fill="#f6f6f6" stroke="#bbb" stroke-width="0.4"/>
      <rect x="84" y="48" width="6" height="8" fill="#f6f6f6" stroke="#bbb" stroke-width="0.4"/>
      <rect x="78" y="32" width="3" height="4" fill="#111"/>
      <rect x="85" y="42" width="3" height="4" fill="#111"/>
    </g>
  </g>
</svg>
