<svg xmlns="http://www.w3.org/2000/svg" viewBox="0 0 128 128" width="128" height="128">
  <!-- Accordeon - GM 21 -->
  <g transform="rotate(45, 64, 64)">

    <!-- Caisse droite (clavier) -->
    <rect x="72" y="14" width="22" height="100" rx="4" fill="#CC3333" stroke="#A52828" stroke-width="2"/>

    <!-- Touches blanches du clavier -->
    <rect x="72" y="24" width="6" height="6" rx="1" fill="#F5F5F5" stroke="#CCC" stroke-width="0.5"/>
    <rect x="72" y="32" width="6" height="6" rx="1" fill="#F5F5F5" stroke="#CCC" stroke-width="0.5"/>
    <rect x="72" y="40" width="6" height="6" rx="1" fill="#F5F5F5" stroke="#CCC" stroke-width="0.5"/>
    <rect x="72" y="48" width="6" height="6" rx="1" fill="#F5F5F5" stroke="#CCC" stroke-width="0.5"/>
    <rect x="72" y="56" width="6" height="6" rx="1" fill="#F5F5F5" stroke="#CCC" stroke-width="0.5"/>
    <rect x="72" y="64" width="6" height="6" rx="1" fill="#F5F5F5" stroke="#CCC" stroke-width="0.5"/>
    <rect x="72" y="72" width="6" height="6" rx="1" fill="#F5F5F5" stroke="#CCC" stroke-width="0.5"/>
    <rect x="72" y="80" width="6" height="6" rx="1" fill="#F5F5F5" stroke="#CCC" stroke-width="0.5"/>
    <rect x="72" y="88" width="6" height="6" rx="1" fill="#F5F5F5" stroke="#CCC" stroke-width="0.5"/>
    <rect x="72" y="96" width="6" height="6" rx="1" fill="#F5F5F5" stroke="#CCC" stroke-width="0.5"/>

    <!-- Touches noires -->
    <rect x="72" y="28" width="4" height="4" rx="0.5" fill="#111"/>
    <rect x="72" y="36" width="4" height="4" rx="0.5" fill="#111"/>
    <rect x="72" y="52" width="4" height="4" rx="0.5" fill="#111"/>
    <rect x="72" y="60" width="4" height="4" rx="0.5" fill="#111"/>
    <rect x="72" y="68" width="4" height="4" rx="0.5" fill="#111"/>
    <rect x="72" y="84" width="4" height="4" rx="0.5" fill="#111"/>
    <rect x="72" y="92" width="4" height="4" rx="0.5" fill="#111"/>

    <!-- Soufflet (partie centrale pliee) -->
    <line x1="42" y1="18" x2="70" y2="18" stroke="#222" stroke-width="1"/>
    <line x1="42" y1="26" x2="70" y2="26" stroke="#222" stroke-width="1"/>
    <line x1="42" y1="34" x2="70" y2="34" stroke="#222" stroke-width="1"/>
    <line x1="42" y1="42" x2="70" y2="42" stroke="#222" stroke-width="1"/>
    <line x1="42" y1="50" x2="70" y2="50" stroke="#222" stroke-width="1"/>
    <line x1="42" y1="58" x2="70" y2="58" stroke="#222" stroke-width="1"/>
    <line x1="42" y1="66" x2="70" y2="66" stroke="#222" stroke-width="1"/>
    <line x1="42" y1="74" x2="70" y2="74" stroke="#222" stroke-width="1"/>
    <line x1="42" y1="82" x2="70" y2="82" stroke="#222" stroke-width="1"/>
    <line x1="42" y1="90" x2="70" y2="90" stroke="#222" stroke-width="1"/>
    <line x1="42" y1="98" x2="70" y2="98" stroke="#222" stroke-width="1"/>
    <line x1="42" y1="106" x2="70" y2="106" stroke="#222" stroke-width="1"/>
    <line x1="42" y1="110" x2="70" y2="110" stroke="#222" stroke-width="1"/>
    <rect x="42" y="14" width="28" height="100" rx="1" fill="none" stroke="#333" stroke-width="1.5"/>

    <!-- Caisse gauche (basses/boutons) -->
    <rect x="20" y="14" width="22" height="100" rx="4" fill="#CC3333" stroke="#A52828" stroke-width="2"/>

    <!-- Boutons basses (grille) -->
    <circle cx="29" cy="30" r="2.5" fill="#F5F5F5" stroke="#CCC" stroke-width="0.5"/>
    <circle cx="36" cy="30" r="2.5" fill="#F5F5F5" stroke="#CCC" stroke-width="0.5"/>
    <circle cx="29" cy="40" r="2.5" fill="#F5F5F5" stroke="#CCC" stroke-width="0.5"/>
    <circle cx="36" cy="40" r="2.5" fill="#F5F5F5" stroke="#CCC" stroke-width="0.5"/>
    <circle cx="29" cy="50" r="2.5" fill="#F5F5F5" stroke="#CCC" stroke-width="0.5"/>
    <circle cx="36" cy="50" r="2.5" fill="#F5F5F5" stroke="#CCC" stroke-width="0.5"/>
    <circle cx="29" cy="60" r="2.5" fill="#F5F5F5" stroke="#CCC" stroke-width="0.5"/>
    <circle cx="36" cy="60" r="2.5" fill="#F5F5F5" stroke="#CCC" stroke-width="0.5"/>
    <circle cx="29" cy="70" r="2.5" fill="#F5F5F5" stroke="#CCC" stroke-width="0.5"/>
    <circle cx="36" cy="70" r="2.5" fill="#F5F5F5" stroke="#CCC" stroke-width="0.5"/>
    <circle cx="29" cy="80" r="2.5" fill="#F5F5F5" stroke="#CCC" stroke-width="0.5"/>
    <circle cx="36" cy="80" r="2.5" fill="#F5F5F5" stroke="#CCC" stroke-width="0.5"/>
    <circle cx="29" cy="90" r="2.5" fill="#F5F5F5" stroke="#CCC" stroke-width="0.5"/>
    <circle cx="36" cy="90" r="2.5" fill="#F5F5F5" stroke="#CCC" stroke-width="0.5"/>

    <!-- Sangles -->
    <path d="M 82 16 C 86 10, 90 8, 90 14" fill="none" stroke="#5C4A0E" stroke-width="2" stroke-linecap="round"/>
    <path d="M 82 112 C 86 118, 90 120, 90 114" fill="none" stroke="#5C4A0E" stroke-width="2" stroke-linecap="round"/>

  </g>
</svg>
