<svg xmlns="http://www.w3.org/2000/svg" viewBox="0 0 128 128" width="128" height="128">
  <!-- Piano a queue (vue de dessus) - GM 0 -->

    <!-- Couvercle (forme de piano a queue vue de haut) -->
    <path d="
      M 16 20
      L 16 108
      C 16 114, 20 118, 26 118
      C 40 118, 56 116, 72 110
      C 88 104, 100 94, 106 80
      C 112 66, 112 50, 108 38
      C 104 26, 96 20, 86 20
      L 16 20 Z
    " fill="#1A1A1A" stroke="#111" stroke-width="2"/>

    <!-- Bord du couvercle (filet) -->
    <path d="
      M 18 22
      L 18 106
      C 18 112, 22 116, 28 116
      C 42 116, 56 114, 72 108
      C 86 102, 98 92, 104 80
      C 110 66, 110 50, 106 38
      C 102 28, 94 22, 86 22
      L 18 22 Z
    " fill="none" stroke="#333" stroke-width="0.8"/>

    <!-- Clavier (touches blanches) -->
    <rect x="16" y="20" width="8" height="88" rx="1" fill="#F5F5F5" stroke="#CCC" stroke-width="1"/>

    <!-- Touches noires -->
    <rect x="16" y="26" width="5" height="4" rx="0.5" fill="#111"/>
    <rect x="16" y="34" width="5" height="4" rx="0.5" fill="#111"/>
    <rect x="16" y="44" width="5" height="4" rx="0.5" fill="#111"/>
    <rect x="16" y="52" width="5" height="4" rx="0.5" fill="#111"/>
    <rect x="16" y="60" width="5" height="4" rx="0.5" fill="#111"/>
    <rect x="16" y="70" width="5" height="4" rx="0.5" fill="#111"/>
    <rect x="16" y="78" width="5" height="4" rx="0.5" fill="#111"/>
    <rect x="16" y="86" width="5" height="4" rx="0.5" fill="#111"/>
    <rect x="16" y="94" width="5" height="4" rx="0.5" fill="#111"/>

    <!-- Pieds (3) -->
    <circle cx="20" cy="112" r="3" fill="#333"/>
    <circle cx="20" cy="26" r="3" fill="#333"/>
    <circle cx="96" cy="50" r="3" fill="#333"/>

</svg>
