<svg xmlns="http://www.w3.org/2000/svg" viewBox="0 0 128 128" width="128" height="128">
  <!-- Agogo -->
  <g transform="rotate(12,64,64)">
    <path d="M42 30 C42 48,60 49,60 33 C60 49,80 51,82 65" fill="none" stroke="#8C8C8C" stroke-width="4" stroke-linecap="round"/>

    <path d="M35 31 L33 58 C33 66,41 70,50 70 C60 70,64 66,62 58 L52 31 Z" fill="#9A9A9A" stroke="#696969" stroke-width="2"/>
    <ellipse cx="48" cy="68" rx="9" ry="3.6" fill="#7E7E7E" stroke="#696969"/>

    <path d="M72 54 L68 88 C68 98,78 104,91 104 C104 104,111 98,109 88 L96 54 Z" fill="#9A9A9A" stroke="#696969" stroke-width="2"/>
    <ellipse cx="90" cy="102" rx="13" ry="4.7" fill="#7E7E7E" stroke="#696969"/>

    <line x1="20" y1="14" x2="45" y2="45" stroke="#8B6914" stroke-width="3" stroke-linecap="round"/>
    <circle cx="45" cy="45" r="3" fill="#8B6914"/>
  </g>
</svg>
