<svg xmlns="http://www.w3.org/2000/svg" viewBox="0 0 128 128" width="128" height="128">
  <!-- Saxophone alto -->
  <g transform="rotate(45,64,64)">
    <rect x="50" y="3" width="5" height="11" rx="1" fill="#1B1B1B" stroke="#111"/>
    <rect x="48" y="0" width="4" height="6" rx="1" fill="#5E4720"/>

    <path d="M52 14 C52 20,56 24,60 24" fill="none" stroke="#D8B34A" stroke-width="4.2" stroke-linecap="round"/>
    <rect x="58" y="24" width="10" height="58" rx="4" fill="#D8B34A" stroke="#8A6A10" stroke-width="1.4"/>

    <path d="M63 82 C63 96,69 102,79 102 C86 102,89 96,89 88" fill="none" stroke="#D8B34A" stroke-width="11"/>
    <path d="M84 88 C80 80,74 72,74 66 C74 61,79 57,87 57 C95 57,100 61,100 66 C100 72,96 80,92 88 Z" fill="#D8B34A" stroke="#8A6A10" stroke-width="1.4"/>

    <g fill="#ECCE67" stroke="#8A6A10" stroke-width="0.7">
      <circle cx="56" cy="31" r="2.8"/><circle cx="56" cy="41" r="2.8"/><circle cx="56" cy="51" r="2.8"/>
      <circle cx="56" cy="61" r="2.8"/><circle cx="56" cy="71" r="2.8"/>
      <circle cx="70" cy="36" r="2.3"/><circle cx="70" cy="48" r="2.3"/>
    </g>
  </g>
</svg>
