<svg xmlns="http://www.w3.org/2000/svg" viewBox="0 0 128 128" width="128" height="128">
  <!-- Basson -->
  <g transform="rotate(45,64,64)">
    <path d="M58 18 C54 12,51 8,53 5 C55 2,60 4,60 9 C60 12,59 15,58 18" fill="none" stroke="#C2C2C2" stroke-width="2.4" stroke-linecap="round"/>

    <rect x="54" y="18" width="8" height="78" rx="3" fill="#9F6330" stroke="#6B3F1E" stroke-width="1.5"/>
    <rect x="66" y="10" width="10" height="86" rx="4" fill="#9F6330" stroke="#6B3F1E" stroke-width="1.5"/>
    <path d="M58 96 C58 108,62 112,68 112 C74 112,76 108,76 96" fill="#9F6330" stroke="#6B3F1E" stroke-width="1.5"/>
    <path d="M66 10 C65 6,67 2,72 2 C77 2,79 6,78 10" fill="#9F6330" stroke="#6B3F1E" stroke-width="1.5"/>

    <g fill="#CFCFCF" stroke="#9A9A9A" stroke-width="0.7">
      <rect x="53" y="16" width="10" height="3" rx="1"/>
      <rect x="65" y="8" width="12" height="3" rx="1"/>
      <circle cx="50" cy="31" r="2.3"/><circle cx="50" cy="43" r="2.3"/><circle cx="50" cy="55" r="2.3"/>
      <circle cx="50" cy="67" r="2.6"/><circle cx="50" cy="79" r="2.6"/>
      <circle cx="80" cy="26" r="2.3"/><circle cx="80" cy="42" r="2.3"/><circle cx="80" cy="58" r="2.3"/>
    </g>

    <g stroke="#9A9A9A" stroke-width="0.8">
      <line x1="50" y1="31" x2="54" y2="31"/>
      <line x1="50" y1="43" x2="54" y2="43"/>
      <line x1="50" y1="55" x2="54" y2="55"/>
      <line x1="50" y1="67" x2="54" y2="67"/>
      <line x1="50" y1="79" x2="54" y2="79"/>
    </g>
  </g>
</svg>
