<svg xmlns="http://www.w3.org/2000/svg" viewBox="0 0 128 128" width="128" height="128">
  <!-- Guitare électrique clean -->
  <g transform="rotate(45,64,64)">
    <rect x="59" y="7" width="10" height="44" rx="2" fill="#C59A4E" stroke="#8A6327" stroke-width="1.4"/>
    <rect x="56" y="0" width="16" height="10" rx="3" fill="#C59A4E" stroke="#8A6327" stroke-width="1.4"/>

    <path d="M59 50 L45 41 C41 39,37 42,38 47 L48 57 C42 66,38 80,38 96 C38 112,51 122,64 122 C77 122,90 112,90 96 C90 80,86 66,80 57 L90 47 C91 42,87 39,83 41 L69 50 Z" fill="#C73333" stroke="#8F1F1F" stroke-width="2"/>

    <path d="M49 57 C43 65,40 78,40 91 C40 100,45 108,54 110 L72 110 L72 84 C72 71,62 59,49 57 Z" fill="#F8F8F8" stroke="#DEDEDE" stroke-width="0.8"/>
    <rect x="47" y="75" width="22" height="3" rx="1.5" fill="#FFF" stroke="#CFCFCF" stroke-width="0.6"/>
    <rect x="47" y="85" width="22" height="3" rx="1.5" fill="#FFF" stroke="#CFCFCF" stroke-width="0.6"/>
    <rect x="47" y="95" width="22" height="3" rx="1.5" fill="#FFF" stroke="#CFCFCF" stroke-width="0.6"/>

    <rect x="51" y="110" width="17" height="5" rx="1" fill="#D7B043" stroke="#8A6A10" stroke-width="0.8"/>
    <circle cx="80" cy="94" r="2.4" fill="#F6F6F6" stroke="#BFBFBF"/>
    <circle cx="82" cy="103" r="2.4" fill="#F6F6F6" stroke="#BFBFBF"/>

    <line x1="60" y1="2" x2="54" y2="110" stroke="#EAD7A2" stroke-width="0.45"/>
    <line x1="62" y1="2" x2="56" y2="110" stroke="#EAD7A2" stroke-width="0.45"/>
    <line x1="63.5" y1="2" x2="58" y2="110" stroke="#EAD7A2" stroke-width="0.55"/>
    <line x1="65" y1="2" x2="60" y2="110" stroke="#EAD7A2" stroke-width="0.55"/>
    <line x1="67" y1="2" x2="62" y2="110" stroke="#EAD7A2" stroke-width="0.65"/>
    <line x1="68" y1="2" x2="64" y2="110" stroke="#EAD7A2" stroke-width="0.75"/>
  </g>
</svg>
