<svg xmlns="http://www.w3.org/2000/svg" viewBox="0 0 128 128" width="128" height="128">
  <!-- Basse électrique (finger) -->
  <g transform="rotate(45,64,64)">
    <rect x="60" y="7" width="8" height="52" rx="2" fill="#8A6330" stroke="#5D411D" stroke-width="1.4"/>
    <rect x="57" y="0" width="14" height="10" rx="3" fill="#6B4A24" stroke="#4A3219" stroke-width="1.2"/>
    <circle cx="59" cy="2.5" r="1.5" fill="#D5B24F"/><circle cx="59" cy="7" r="1.5" fill="#D5B24F"/>
    <circle cx="69" cy="2.5" r="1.5" fill="#D5B24F"/><circle cx="69" cy="7" r="1.5" fill="#D5B24F"/>

    <path d="M64 56 C53 56,42 60,41 68 C40 74,46 77,52 75 C47 82,40 91,40 102 C40 114,50 122,61 122 C74 122,85 115,87 103 C89 92,84 82,78 75 C84 76,89 73,88 67 C86 59,74 56,64 56 Z" fill="#2F6A84" stroke="#1E4D61" stroke-width="2"/>
    <path d="M50 75 C46 81,43 87,43 95 C43 103,49 108,56 108 L67 108 L67 89 C67 81,60 76,50 75 Z" fill="#111" opacity="0.22"/>

    <rect x="47" y="86" width="18" height="5" rx="2" fill="#2C2C2C"/>
    <rect x="47" y="97" width="18" height="5" rx="2" fill="#2C2C2C"/>
    <rect x="49" y="109" width="15" height="4" rx="1" fill="#D5B24F" stroke="#8A6A10"/>

    <circle cx="78" cy="95" r="2.3" fill="#D5B24F" stroke="#8A6A10"/>
    <circle cx="78" cy="104" r="2.3" fill="#D5B24F" stroke="#8A6A10"/>

    <line x1="61" y1="1" x2="53" y2="109" stroke="#EBDCB0" stroke-width="0.55"/>
    <line x1="63" y1="1" x2="56" y2="109" stroke="#EBDCB0" stroke-width="0.65"/>
    <line x1="65" y1="1" x2="59" y2="109" stroke="#EBDCB0" stroke-width="0.8"/>
    <line x1="67" y1="1" x2="62" y2="109" stroke="#EBDCB0" stroke-width="1"/>
  </g>
</svg>
