<svg xmlns="http://www.w3.org/2000/svg" viewBox="0 0 128 128" width="128" height="128">
  <!-- Cor d'harmonie -->
  <g transform="rotate(45,64,64)">
    <circle cx="62" cy="64" r="27" fill="none" stroke="#D2AB3A" stroke-width="7"/>
    <circle cx="62" cy="64" r="17" fill="none" stroke="#D2AB3A" stroke-width="5"/>

    <path d="M35 38 C43 38,48 43,48 48" fill="none" stroke="#D2AB3A" stroke-width="5" stroke-linecap="round"/>
    <rect x="26" y="36" width="9" height="4" rx="2" fill="#D2AB3A" stroke="#8A6A10"/>
    <ellipse cx="25" cy="38" rx="3" ry="1.8" fill="#D2AB3A" stroke="#8A6A10"/>

    <rect x="50" y="44" width="4" height="9" rx="1" fill="#E8CC6A" stroke="#8A6A10"/>
    <rect x="58" y="40" width="4" height="9" rx="1" fill="#E8CC6A" stroke="#8A6A10"/>
    <rect x="66" y="44" width="4" height="9" rx="1" fill="#E8CC6A" stroke="#8A6A10"/>

    <path d="M84 76 C91 84,99 94,102 103 C105 113,96 119,86 116 C76 113,72 104,76 95 C79 88,83 79,84 76 Z" fill="#D2AB3A" stroke="#8A6A10" stroke-width="1.6"/>
  </g>
</svg>
