<svg xmlns="http://www.w3.org/2000/svg" viewBox="0 0 128 128" width="128" height="128">
  <!-- Trombone -->
  <g transform="rotate(45,64,64)">
    <rect x="58" y="12" width="4" height="78" rx="2" fill="#D8B34A" stroke="#8A6B10"/>
    <rect x="69" y="12" width="4" height="84" rx="2" fill="#D8B34A" stroke="#8A6B10"/>
    <rect x="58" y="22" width="15" height="3" rx="1.5" fill="#D8B34A" stroke="#8A6B10"/>

    <path d="M58 90 C58 101,64 105,71 105 C77 105,73 101,73 95" fill="none" stroke="#D8B34A" stroke-width="5" stroke-linecap="round"/>
    <path d="M73 12 v50" fill="none" stroke="#D8B34A" stroke-width="5" stroke-linecap="round"/>
    <path d="M75 12 C75 7,79 6,83 8" fill="none" stroke="#D8B34A" stroke-width="5" stroke-linecap="round"/>
    <path d="M83 8 v56" fill="none" stroke="#D8B34A" stroke-width="5" stroke-linecap="round"/>

    <rect x="58" y="5" width="3" height="7" rx="1" fill="#D8B34A" stroke="#8A6B10"/>
    <ellipse cx="59.5" cy="4" rx="3.8" ry="1.8" fill="#D8B34A" stroke="#8A6B10"/>

    <path d="M83 64 C77 72,71 84,69 94 C67 104,77 110,87 110 C97 110,107 104,105 94 C103 84,97 72,91 64 Z" fill="#D8B34A" stroke="#8A6B10" stroke-width="1.6"/>
  </g>
</svg>
