<svg xmlns="http://www.w3.org/2000/svg" viewBox="0 0 128 128" width="128" height="128">
  <!-- Trompette -->
  <g transform="rotate(45,64,64)">
    <rect x="60" y="16" width="8" height="52" rx="4" fill="#D7B043" stroke="#8A6B10" stroke-width="1.5"/>
    <rect x="52" y="28" width="4" height="24" rx="2" fill="#D7B043" stroke="#8A6B10"/>
    <rect x="72" y="28" width="4" height="24" rx="2" fill="#D7B043" stroke="#8A6B10"/>

    <rect x="56" y="30" width="4" height="9" rx="1" fill="#ECD27A" stroke="#8A6B10"/>
    <rect x="62" y="30" width="4" height="9" rx="1" fill="#ECD27A" stroke="#8A6B10"/>
    <rect x="68" y="30" width="4" height="9" rx="1" fill="#ECD27A" stroke="#8A6B10"/>

    <rect x="62" y="9" width="4" height="7" rx="1" fill="#D7B043" stroke="#8A6B10"/>
    <ellipse cx="64" cy="8" rx="4" ry="2" fill="#D7B043" stroke="#8A6B10"/>

    <path d="M60 68 C53 77,45 90,43 98 C41 108,52 113,64 113 C76 113,87 108,85 98 C83 90,75 77,68 68 Z" fill="#D7B043" stroke="#8A6B10" stroke-width="1.6"/>
  </g>
</svg>
