<svg xmlns="http://www.w3.org/2000/svg" viewBox="0 0 128 128" width="128" height="128">
  <!-- Tuba -->
  <g transform="rotate(45,64,64)">
    <path d="M52 20 v42" stroke="#CBA432" stroke-width="8" fill="none" stroke-linecap="round"/>
    <path d="M52 62 h28" stroke="#CBA432" stroke-width="8" fill="none" stroke-linecap="round"/>
    <path d="M80 62 v-30" stroke="#CBA432" stroke-width="8" fill="none" stroke-linecap="round"/>
    <path d="M80 32 h-18" stroke="#CBA432" stroke-width="8" fill="none" stroke-linecap="round"/>
    <path d="M62 32 v26" stroke="#CBA432" stroke-width="8" fill="none" stroke-linecap="round"/>
    <path d="M62 58 h22" stroke="#CBA432" stroke-width="8" fill="none" stroke-linecap="round"/>

    <rect x="44" y="16" width="6" height="8" rx="1" fill="#DABB5A" stroke="#8B6F17"/>
    <ellipse cx="47" cy="15" rx="4" ry="2" fill="#DABB5A" stroke="#8B6F17"/>

    <rect x="70" y="34" width="5" height="9" rx="1" fill="#E9CF70" stroke="#8B6F17"/>
    <rect x="76" y="34" width="5" height="9" rx="1" fill="#E9CF70" stroke="#8B6F17"/>
    <rect x="82" y="34" width="5" height="9" rx="1" fill="#E9CF70" stroke="#8B6F17"/>

    <path d="M84 58 C94 67,104 80,106 92 C108 104,98 112,84 112 C70 112,60 104,62 92 C64 80,74 67,84 58 Z" fill="#D8B44E" stroke="#8B6F17" stroke-width="2"/>
    <ellipse cx="84" cy="99" rx="16" ry="9" fill="#8B6F17" opacity="0.28"/>
  </g>
</svg>
